<?xml version="1.0" ?><svg style="enable-background:new 0 0 512 512;" version="1.1" viewBox="0 0 512 512" xml:space="preserve" xmlns="http://www.w3.org/2000/svg" xmlns:xlink="http://www.w3.org/1999/xlink"><style type="text/css">
	.st0{fill:#63021C;}
	.st1{fill:#C6002B;}
	.st2{opacity:0.45;fill:#231F20;}
	.st3{fill:#FFFFFF;}
</style><g id="Edges"/><g id="Background_Bottom"><g><path class="st0" d="M492.3,443.1c0,34.2-27.7,61.9-61.9,61.9H80.7c-34.2,0-61.9-27.7-61.9-61.9V93.4c0-34.2,27.7-61.9,61.9-61.9    h349.7c34.2,0,61.9,27.7,61.9,61.9V443.1z"/></g></g><g id="Background"><path class="st1" d="M492.3,418.4c0,34.2-27.7,61.9-61.9,61.9H80.7c-34.2,0-61.9-27.7-61.9-61.9V68.6c0-34.2,27.7-61.9,61.9-61.9   h349.7c34.2,0,61.9,27.7,61.9,61.9V418.4z"/></g><g id="Shadow"><path class="st2" d="M492.3,278.4v-0.6L387.1,172.6c-23.5-27.3-63.9-37.7-99.2-19.9c-13,6.6-23.5,16-32.2,28.4   c-1.1-1.4-1.8-2.3-2.6-3.3c-30.6-41.3-89.6-45.6-125.3-9.2c-23.3,23.8-33.1,64-11.8,96.1c5.8,8.8,12.4,17.3,19.9,24.7   c3.8,3.7,7.6,7.4,11.4,11.1L327,480.3c34.5,0,68.9,0,103.4,0c34.2,0,61.9-27.7,61.9-61.9C492.3,371.7,492.3,325.1,492.3,278.4   L492.3,278.4z"/></g><g id="Symbol"><path class="st3" d="M255.7,181.2c8.6-12.4,19.2-21.9,32.2-28.4c49.3-24.9,108.7,5.3,117.8,59.8c3.2,19.2-0.5,36.8-10.9,53.1   c-7.4,11.5-16.5,21.6-26.3,31c-24,22.9-48.1,45.7-72.2,68.6c-0.3,0.3-0.7,0.6-1,0.9c-2,1.9-4.2,2.8-6.9,1.7   c-2.8-1.2-3.7-3.4-3.7-6.4c0-18,0.1-35.9,0-53.9c-0.1-11.1-4.8-19.9-14.4-25.6c-19.3-11.5-43.4,2.4-43.6,25.2   c-0.2,17.7-0.1,35.5,0,53.2c0,3.2-0.3,6-3.7,7.5c-3.4,1.5-5.7-0.4-7.9-2.5c-26.4-25.2-53-50.2-79.1-75.8   c-7.5-7.4-14-15.9-19.9-24.7c-21.3-32.1-11.5-72.3,11.8-96.1c35.7-36.4,94.7-32.1,125.3,9.2C253.9,178.8,254.7,179.8,255.7,181.2z    M255.5,254.5c13.9,0,25.1-11.2,25.1-25c0-13.7-11.2-24.9-24.8-25c-13.8-0.1-25.1,11.2-25.1,25   C230.7,243.3,241.9,254.5,255.5,254.5z M135.1,223.7c0.5,3.8,0.9,8.6,1.9,13.2c3.8,17.3,13.3,31.4,25.3,44   c3.2,3.4,6.7,6.7,10.2,9.8c2.8,2.5,6.1,2.2,8.3-0.3c2.2-2.5,2-5.6-0.6-8.3c-1-1-2-1.9-3-2.8c-10.1-9.5-19.1-20-24.8-32.8   c-4.8-10.8-6.9-22-4.1-33.6c3.2-13.5,9.9-24.9,21.5-33.1c3.1-2.1,3.6-5.3,1.8-8.1c-1.8-2.8-5.3-3.4-8.5-1.4   c-1.2,0.7-2.3,1.5-3.4,2.4C144.2,185.7,136.6,202.7,135.1,223.7z M375.8,223.2c0-1.2,0.1-2.3,0-3.4c-0.3-2.7-0.6-5.5-1.2-8.2   c-3.8-16.7-11.7-30.9-25.9-41c-3.5-2.5-7.1-2-9.1,1c-1.9,3-0.9,5.8,2.3,8.6c3.7,3.2,7.7,6.4,10.6,10.3c14.8,20,15.1,41,3.1,62.4   c-6.2,11-14.6,20.1-23.8,28.5c-3.4,3.1-3.8,6.3-1.3,9c2.4,2.7,6,2.9,9-0.4c7.5-8,15.2-15.8,21.7-24.5   C370.5,253.2,375.6,238.9,375.8,223.2z M318,226.5c-0.3,1.9-0.6,5.1-1.4,8.2c-3.1,11.4-10.1,20-20.1,26.1c-3.6,2.2-4.5,5.4-2.7,8.4   c1.7,2.8,5,3.6,8.1,1.9c18.7-10.5,32.3-34.3,26.4-57c-3.4-13.1-11.1-23.1-23-29.6c-3.2-1.7-6.5-0.8-8.1,2c-1.6,2.8-0.7,6.1,2.3,8   c0.9,0.6,1.8,1,2.7,1.6C312.4,203.1,317.6,212.8,318,226.5z M181.6,222.8c0,20.2,11.7,39.8,27.5,48.3c3.4,1.8,6.7,1.1,8.4-1.8   c1.7-2.9,0.7-6-2.5-8.3c-3.5-2.6-7.2-5-10.2-8.2c-18.8-20.1-13.4-47.3,6.7-58.1c3.4-1.8,4.2-5.3,2.5-8.2c-1.7-2.9-5.1-3.7-8.5-1.7   C190.1,193.7,182.4,207.4,181.6,222.8z"/></g></svg>